<svg id="_2" data-name="2" xmlns="http://www.w3.org/2000/svg" viewBox="0 0 463.82 512"><defs><style>.cls-1{fill:#3d5a80;}</style></defs><path class="cls-1" d="M364,355c-20-7.46-49-29.24-49-42.8V276.65c11.53-12.82,20.3-38.86,25.51-68.38,12.15-4.34,19.09-11.28,27.77-41.66,9.22-32.36-13.89-31.26-13.89-31.26,18.69-61.87-5.91-120-47.12-115.75C278.84-30.13,183.63,31,153.8,26.7a67.44,67.44,0,0,0,7.1,29.85c-10.37,19.69-6.37,59-3.46,78.8-1.68,0-22.58.19-13.72,31.26,8.68,30.38,15.62,37.32,27.78,41.66,5.2,29.52,14,55.56,25.5,68.38v35.59c0,13.56-30.9,36.4-49,42.8C110.5,368.23,18.42,406.17,24.37,477.24,25.79,494.3,119.58,512,256,512s230.21-17.7,231.64-34.76C493.58,406.1,401.27,369,364,355Z" transform="translate(-24.09 0)"/></svg>