<svg id="_2" data-name="2" xmlns="http://www.w3.org/2000/svg" viewBox="0 0 512 502.6"><defs><style>.cls-1{fill:#3d5a80;}</style></defs><path class="cls-1" d="M422,6C315.33,20.74,213.21,220.86,162.94,313.49c-12.64,23.29,9.42,35.4,22.42,13.12,9.34-16,32.11-62.5,44.42-60.09,58.8,9.79,90.16-28.55,67.89-52.67,74.8,1.53,111.88-39.61,90.66-64.61,22.31,7.06,55.08,6,83.77-9.61C533.33,106.22,529.63-8.83,422,6Z" transform="translate(0 -4.7)"/><path class="cls-1" d="M409.19,207.05c-9.72,9.14-27,22.14-41.55,27.81V441.92a16.32,16.32,0,0,1-16.33,16.35H65.36A16.32,16.32,0,0,1,49,441.92V156a16.32,16.32,0,0,1,16.34-16.35H225.75c11.24-17.12,22.74-33.58,34.49-49H65.36A65.35,65.35,0,0,0,0,156V441.92A65.35,65.35,0,0,0,65.36,507.3h286a65.35,65.35,0,0,0,65.36-65.38V206S414,202.52,409.19,207.05Z" transform="translate(0 -4.7)"/></svg>