<!--?xml version="1.0" encoding="utf-8"?-->
<!-- Generator: Adobe Illustrator 18.1.1, SVG Export Plug-In . SVG Version: 6.00 Build 0)  -->

<svg version="1.1" id="_x32_" xmlns="http://www.w3.org/2000/svg" xmlns:xlink="http://www.w3.org/1999/xlink" x="0px" y="0px" viewBox="0 0 512 512" style="width: 256px; height: 256px; opacity: 1;" xml:space="preserve">
<style type="text/css">
	.st0{fill:#4B4B4B;}
</style>
<g>
	<path class="st0" d="M487.463,216.139L286.099,12.576C278.137,4.52,267.308,0,255.997,0c-11.312,0-22.13,4.52-30.092,12.576
		L24.541,216.139c-16.438,16.622-16.304,43.437,0.329,59.875c16.613,16.438,43.416,16.294,59.854-0.329l128.955-130.352v324.341
		c0,23.362,18.945,42.327,42.318,42.327c23.382,0,42.327-18.965,42.327-42.327V145.332L427.27,275.684
		c16.438,16.623,43.252,16.767,59.864,0.329C503.758,259.576,503.901,232.761,487.463,216.139z" style="fill: rgb(75, 75, 75);"></path>
</g>
</svg>
